<?xml version="1.0" standalone="no"?><!DOCTYPE svg PUBLIC "-//W3C//DTD SVG 1.1//EN" "http://www.w3.org/Graphics/SVG/1.1/DTD/svg11.dtd"><svg t="1686817127663" class="icon" viewBox="0 0 1105 1024" version="1.1" xmlns="http://www.w3.org/2000/svg" p-id="1177" xmlns:xlink="http://www.w3.org/1999/xlink" width="23.740234375" height="22"><path d="M605.796143 3.526171c166.435262 76.870523 332.870523 154.446281 497.895317 233.432507 3.526171 3.526171-7.052342 11.988981-11.988981 16.92562-84.628099 84.628099-173.487603 177.719008-257.410468 263.757576 75.460055 107.900826 149.509642 217.212121 227.085399 322.997245-102.964187 61.355372-210.15978 119.184573-314.534435 179.129477-69.112948-65.586777-133.289256-136.110193-199.581267-204.517906-73.344353 65.586777-136.110193 141.046832-208.044077 208.044077-107.195592-64.881543-217.212121-126.942149-325.112948-191.118457C90.269972 723.570248 169.256198 615.669421 245.421488 506.358127 165.730028 417.498623 78.986226 336.396694 0 246.831956 157.267218 166.435262 315.944904 77.575758 470.391185 0c11.988981 16.220386 35.966942 47.250689 52.187328 71.22865 4.231405 6.347107 11.988981 23.272727 15.515152 23.977961 6.347107 0 29.619835-39.493113 33.85124-45.84022C585.344353 30.325069 593.807163 17.630854 605.796143 3.526171zM198.170799 220.033058c-5.641873 7.052342-17.630854 7.757576-23.977961 15.515152 69.818182 74.049587 142.4573 143.867769 210.15978 220.033058-73.344353 100.143251-145.278237 200.991736-216.506887 303.250689 51.482094 28.914601 102.964187 58.534435 152.330579 89.564738 78.280992-73.344353 148.804408-154.446281 227.085399-228.495868 53.597796 57.123967 109.311295 116.363636 164.319559 170.666667 18.336088 18.336088 33.85124 40.903581 55.713499 54.30303 45.84022-26.093664 91.680441-52.892562 138.931129-77.575758-66.997245-103.669421-141.046832-199.581267-208.044077-303.250689 75.460055-79.69146 154.446281-155.856749 228.495868-236.958678-97.322314-42.31405-189.002755-89.564738-286.325069-131.878788-34.556474 47.250689-66.292011 97.322314-102.964187 142.4573-31.735537-48.661157-66.292011-93.796143-98.027548-142.4573-69.818182 35.261708-139.636364 71.22865-206.633609 109.311295 33.146006 47.250689 69.818182 99.438017 98.027548 145.278237C286.325069 306.77686 244.716253 260.936639 198.170799 220.033058z" p-id="1178"></path><path d="M785.630854 325.112948c-39.493113 43.019284-89.564738 89.564738-133.99449 133.99449 46.545455 65.586777 91.680441 131.878788 138.931129 196.055096-58.534435-61.355372-119.889807-133.99449-177.719008-201.69697C670.677686 411.151515 728.506887 368.132231 785.630854 325.112948z" p-id="1179"></path></svg>